<svg xmlns:xlink="http://www.w3.org/1999/xlink" xmlns="http://www.w3.org/2000/svg" viewBox="0 0 24 24"   fill="currentColor" width="1"  height="1" ><path fill-rule="evenodd" d="M12.048 2a9.913 9.913 0 00-6.511 2.44 10.308 10.308 0 00-3.407 6.171 10.436 10.436 0 001.323 6.954 10.079 10.079 0 005.422 4.418c.505.095.684-.226.684-.497v-1.744c-2.804.624-3.396-1.378-3.396-1.378a2.738 2.738 0 00-1.115-1.504c-.906-.63.074-.63.074-.63.317.046.62.165.886.348.266.184.488.426.648.71.137.252.32.475.541.655a2.128 2.128 0 001.582.463c.28-.033.551-.122.798-.262a2.198 2.198 0 01.616-1.372c-2.23-.258-4.572-1.14-4.572-5.035a4.013 4.013 0 011.03-2.75 3.813 3.813 0 01.098-2.713s.844-.277 2.76 1.05a9.303 9.303 0 015.028 0c1.917-1.327 2.755-1.05 2.755-1.05.37.85.413 1.811.123 2.693a4.014 4.014 0 011.029 2.75c0 3.94-2.348 4.803-4.584 5.036.24.246.425.542.543.868.118.326.166.674.14 1.02v2.814c0 .333.18.591.69.49a10.085 10.085 0 005.346-4.434 10.437 10.437 0 001.29-6.91 10.31 10.31 0 00-3.373-6.132A9.916 9.916 0 0012.048 2z" clip-rule="evenodd" fill-opacity="0.75" fill="#EFF1F6"></path></svg>