<svg xmlns:xlink="http://www.w3.org/1999/xlink" xmlns="http://www.w3.org/2000/svg" viewBox="0 0 24 24"   fill="currentColor" width="1"  height="1" ><path fill-rule="evenodd" d="M7.061 20.678H3.3V8.572h3.762v12.106zM5.157 7.086C3.97 7.086 3.2 6.242 3.2 5.203c0-1.064.791-1.88 2.006-1.88 1.214 0 1.957.816 1.98 1.88.002 1.042-.767 1.883-2.029 1.883zM20.8 20.678h-3.76v-6.71c0-1.56-.546-2.622-1.907-2.622-1.04 0-1.657.718-1.932 1.41-.099.245-.123.594-.123.939v6.98H9.313v-8.244c0-1.51-.048-2.774-.099-3.862h3.267l.175 1.682h.073c.496-.791 1.71-1.955 3.74-1.955 2.474 0 4.331 1.657 4.331 5.222v7.159z" clip-rule="evenodd" fill-opacity="0.75" fill="#EFF1F6"></path></svg>