<svg xmlns:xlink="http://www.w3.org/1999/xlink" xmlns="http://www.w3.org/2000/svg" viewBox="0 0 24 24"
    fill="currentColor" width="1" height="1">
    <path fill-rule="evenodd"
        d="M14.89 3.727l5.377 5.375a2.499 2.499 0 010 3.536l-7.77 7.776a2 2 0 01-1.415.586H5a2 2 0 01-2-2v-6.08a2 2 0 01.586-1.415l7.78-7.778a2.5 2.5 0 013.524 0zm-1.412 1.416l.002.002a.499.499 0 00-.702-.002L5 12.92V19h6.082l7.772-7.777a.499.499 0 000-.706l-5.376-5.374zm-4.01 9.389a1.249 1.249 0 11-1.766 1.766 1.249 1.249 0 011.766-1.766z"
        clip-rule="evenodd" fill-opacity="0.75" fill="#EFF1F6"></path>
</svg>