<svg xmlns:xlink="http://www.w3.org/1999/xlink" version="1.1" class="highcharts-root" style="font-family:&quot;Lucida Grande&quot;, &quot;Lucida Sans Unicode&quot;, Arial, Helvetica, sans-serif;font-size:12px;" xmlns="http://www.w3.org/2000/svg" width="650" height="115" viewBox="0 0 650 115"><desc>Created with Highcharts 9.3.3</desc><defs><clipPath id="highcharts-rc8vkaj-145-"><rect x="0" y="0" width="650" height="115" fill="none"></rect></clipPath><clipPath id="highcharts-rc8vkaj-169-"><rect x="0" y="0" width="650" height="115" fill="none"></rect></clipPath><clipPath id="highcharts-rc8vkaj-193-"><rect x="0" y="0" width="650" height="115" fill="none"></rect></clipPath></defs><rect fill="#000000" class="highcharts-background" x="0" y="0" width="650" height="115" rx="0" ry="0" fill-opacity="0"></rect><rect fill="none" class="highcharts-plot-background" x="0" y="0" width="650" height="115"></rect><g class="highcharts-pane-group" data-z-index="0"></g><rect fill="none" class="highcharts-plot-border" data-z-index="1" x="0" y="0" width="650" height="115"></rect><g class="highcharts-series-group" data-z-index="3"><g class="highcharts-series highcharts-series-0 highcharts-column-series highcharts-tracker" data-z-index="0.1" opacity="1" transform="translate(0,0) scale(1 1)" clip-path="url(#highcharts-rc8vkaj-169-)"><rect x="6.5" y="105.5" width="25" height="10" fill="#FFFFFF" rx="2" ry="2" stroke="#282828" stroke-width="1" opacity="1" class="highcharts-point" fill-opacity="0.1"></rect><rect x="34.5" y="105.5" width="25" height="10" fill="#FFFFFF" rx="2" ry="2" stroke="#282828" stroke-width="1" opacity="1" class="highcharts-point" fill-opacity="0.1"></rect><rect x="62.5" y="105.5" width="25" height="10" fill="#FFFFFF" rx="2" ry="2" stroke="#282828" stroke-width="1" opacity="1" class="highcharts-point" fill-opacity="0.1"></rect><rect x="90.5" y="102.5" width="25" height="13" fill="#FFFFFF" rx="2" ry="2" stroke="#282828" stroke-width="1" opacity="1" class="highcharts-point" fill-opacity="0.1"></rect><rect x="117.5" y="82.5" width="25" height="33" fill="#FFFFFF" rx="2" ry="2" stroke="#282828" stroke-width="1" opacity="1" class="highcharts-point" fill-opacity="0.1"></rect><rect x="145.5" y="16.5" width="25" height="99" fill="#FFFFFF" rx="2" ry="2" stroke="#282828" stroke-width="1" opacity="1" class="highcharts-point" fill-opacity="0.1"></rect><rect x="173.5" y="33.5" width="25" height="82" fill="#FFFFFF" rx="2" ry="2" stroke="#282828" stroke-width="1" opacity="1" class="highcharts-point" fill-opacity="0.1"></rect><rect x="201.5" y="63.5" width="25" height="52" fill="#FFFFFF" rx="2" ry="2" stroke="#282828" stroke-width="1" opacity="1" class="highcharts-point" fill-opacity="0.1"></rect><rect x="228.5" y="81.5" width="25" height="34" fill="#FFFFFF" rx="2" ry="2" stroke="#282828" stroke-width="1" opacity="1" class="highcharts-point" fill-opacity="0.1"></rect><rect x="256.5" y="92.5" width="25" height="23" fill="#FFFFFF" rx="2" ry="2" stroke="#282828" stroke-width="1" opacity="1" class="highcharts-point" fill-opacity="0.1"></rect><rect x="284.5" y="99.5" width="25" height="16" fill="#FFFFFF" rx="2" ry="2" stroke="#282828" stroke-width="1" opacity="1" class="highcharts-point" fill-opacity="0.1"></rect><rect x="312.5" y="103.5" width="24" height="12" fill="#FFFFFF" rx="2" ry="2" stroke="#282828" stroke-width="1" opacity="1" class="highcharts-point" fill-opacity="0.1"></rect><rect x="339.5" y="105.5" width="25" height="10" fill="#FFFFFF" rx="2" ry="2" stroke="#282828" stroke-width="1" opacity="1" class="highcharts-point" fill-opacity="0.1"></rect><rect x="367.5" y="105.5" width="25" height="10" fill="#FFFFFF" rx="2" ry="2" stroke="#282828" stroke-width="1" opacity="1" class="highcharts-point" fill-opacity="0.1"></rect><rect x="395.5" y="105.5" width="25" height="10" fill="#FFA116" rx="2" ry="2" stroke="#282828" stroke-width="1" opacity="1" class="highcharts-point highcharts-point-select"></rect><rect x="422.5" y="105.5" width="25" height="10" fill="#FFFFFF" rx="2" ry="2" stroke="#282828" stroke-width="1" opacity="1" class="highcharts-point" fill-opacity="0.1"></rect><rect x="450.5" y="105.5" width="25" height="10" fill="#FFFFFF" rx="2" ry="2" stroke="#282828" stroke-width="1" opacity="1" class="highcharts-point" fill-opacity="0.1"></rect><rect x="478.5" y="105.5" width="25" height="10" fill="#FFFFFF" rx="2" ry="2" stroke="#282828" stroke-width="1" opacity="1" class="highcharts-point" fill-opacity="0.1"></rect><rect x="506.5" y="105.5" width="25" height="10" fill="#FFFFFF" rx="2" ry="2" stroke="#282828" stroke-width="1" opacity="1" class="highcharts-point" fill-opacity="0.1"></rect><rect x="533.5" y="105.5" width="25" height="10" fill="#FFFFFF" rx="2" ry="2" stroke="#282828" stroke-width="1" opacity="1" class="highcharts-point" fill-opacity="0.1"></rect><rect x="561.5" y="105.5" width="25" height="10" fill="#FFFFFF" rx="2" ry="2" stroke="#282828" stroke-width="1" opacity="1" class="highcharts-point" fill-opacity="0.1"></rect><rect x="589.5" y="105.5" width="25" height="10" fill="#FFFFFF" rx="2" ry="2" stroke="#282828" stroke-width="1" opacity="1" class="highcharts-point" fill-opacity="0.1"></rect><rect x="617.5" y="105.5" width="25" height="10" fill="#FFFFFF" rx="2" ry="2" stroke="#282828" stroke-width="1" opacity="1" class="highcharts-point" fill-opacity="0.1"></rect></g><g class="highcharts-markers highcharts-series-0 highcharts-column-series" data-z-index="0.1" opacity="1" transform="translate(0,0) scale(1 1)" clip-path="none"></g><g class="highcharts-series highcharts-series-1 highcharts-column-series highcharts-tracker" data-z-index="0.1" opacity="1" transform="translate(0,0) scale(1 1)" clip-path="url(#highcharts-rc8vkaj-169-)"><rect x="5.5" y="16.5" width="28" height="99" fill="#000000" rx="2" ry="2" stroke="#282828" stroke-width="1" opacity="1" class="highcharts-point" fill-opacity="0"></rect><rect x="33.5" y="16.5" width="28" height="99" fill="#000000" rx="2" ry="2" stroke="#282828" stroke-width="1" opacity="1" class="highcharts-point" fill-opacity="0"></rect><rect x="61.5" y="16.5" width="27" height="99" fill="#000000" rx="2" ry="2" stroke="#282828" stroke-width="1" opacity="1" class="highcharts-point" fill-opacity="0"></rect><rect x="88.5" y="16.5" width="28" height="99" fill="#000000" rx="2" ry="2" stroke="#282828" stroke-width="1" opacity="1" class="highcharts-point" fill-opacity="0"></rect><rect x="116.5" y="16.5" width="28" height="99" fill="#000000" rx="2" ry="2" stroke="#282828" stroke-width="1" opacity="1" class="highcharts-point" fill-opacity="0"></rect><rect x="144.5" y="16.5" width="27" height="99" fill="#000000" rx="2" ry="2" stroke="#282828" stroke-width="1" opacity="1" class="highcharts-point" fill-opacity="0"></rect><rect x="171.5" y="16.5" width="28" height="99" fill="#000000" rx="2" ry="2" stroke="#282828" stroke-width="1" opacity="1" class="highcharts-point" fill-opacity="0"></rect><rect x="199.5" y="16.5" width="28" height="99" fill="#000000" rx="2" ry="2" stroke="#282828" stroke-width="1" opacity="1" class="highcharts-point" fill-opacity="0"></rect><rect x="227.5" y="16.5" width="28" height="99" fill="#000000" rx="2" ry="2" stroke="#282828" stroke-width="1" opacity="1" class="highcharts-point" fill-opacity="0"></rect><rect x="255.5" y="16.5" width="27" height="99" fill="#000000" rx="2" ry="2" stroke="#282828" stroke-width="1" opacity="1" class="highcharts-point" fill-opacity="0"></rect><rect x="282.5" y="16.5" width="28" height="99" fill="#000000" rx="2" ry="2" stroke="#282828" stroke-width="1" opacity="1" class="highcharts-point" fill-opacity="0"></rect><rect x="310.5" y="16.5" width="28" height="99" fill="#000000" rx="2" ry="2" stroke="#282828" stroke-width="1" opacity="1" class="highcharts-point" fill-opacity="0"></rect><rect x="338.5" y="16.5" width="28" height="99" fill="#000000" rx="2" ry="2" stroke="#282828" stroke-width="1" opacity="1" class="highcharts-point" fill-opacity="0"></rect><rect x="366.5" y="16.5" width="27" height="99" fill="#000000" rx="2" ry="2" stroke="#282828" stroke-width="1" opacity="1" class="highcharts-point" fill-opacity="0"></rect><rect x="393.5" y="16.5" width="28" height="99" fill="#000000" rx="2" ry="2" stroke="#282828" stroke-width="1" opacity="1" class="highcharts-point" fill-opacity="0"></rect><rect x="421.5" y="16.5" width="28" height="99" fill="#000000" rx="2" ry="2" stroke="#282828" stroke-width="1" opacity="1" class="highcharts-point" fill-opacity="0"></rect><rect x="449.5" y="16.5" width="28" height="99" fill="#000000" rx="2" ry="2" stroke="#282828" stroke-width="1" opacity="1" class="highcharts-point" fill-opacity="0"></rect><rect x="477.5" y="16.5" width="27" height="99" fill="#000000" rx="2" ry="2" stroke="#282828" stroke-width="1" opacity="1" class="highcharts-point" fill-opacity="0"></rect><rect x="504.5" y="16.5" width="28" height="99" fill="#000000" rx="2" ry="2" stroke="#282828" stroke-width="1" opacity="1" class="highcharts-point" fill-opacity="0"></rect><rect x="532.5" y="16.5" width="28" height="99" fill="#000000" rx="2" ry="2" stroke="#282828" stroke-width="1" opacity="1" class="highcharts-point" fill-opacity="0"></rect><rect x="560.5" y="16.5" width="27" height="99" fill="#000000" rx="2" ry="2" stroke="#282828" stroke-width="1" opacity="1" class="highcharts-point" fill-opacity="0"></rect><rect x="587.5" y="16.5" width="28" height="99" fill="#000000" rx="2" ry="2" stroke="#282828" stroke-width="1" opacity="1" class="highcharts-point" fill-opacity="0"></rect><rect x="615.5" y="16.5" width="28" height="99" fill="#000000" rx="2" ry="2" stroke="#282828" stroke-width="1" opacity="1" class="highcharts-point" fill-opacity="0"></rect></g><g class="highcharts-markers highcharts-series-1 highcharts-column-series" data-z-index="0.1" opacity="1" transform="translate(0,0) scale(1 1)" clip-path="none"></g></g><text x="325" text-anchor="middle" class="highcharts-title" data-z-index="4" style="color: rgb(51, 51, 51); font-size: 18px; display: none;" y="24" fill="#333333"></text><text x="325" text-anchor="middle" class="highcharts-subtitle" data-z-index="4" style="color: rgb(102, 102, 102);" y="24" fill="#666666"></text><text x="10" text-anchor="start" class="highcharts-caption" data-z-index="4" style="color: rgb(102, 102, 102);" y="112" fill="#666666"></text><g class="highcharts-legend highcharts-no-tooltip" data-z-index="7"><rect fill="none" class="highcharts-legend-box" rx="0" ry="0" x="0" y="0" width="8" height="8" visibility="hidden"></rect><g data-z-index="1"><g></g></g></g><g class="highcharts-control-points" data-z-index="99" clip-path="url(#highcharts-rc8vkaj-193-)"></g></svg>