<svg xmlns:xlink="http://www.w3.org/1999/xlink" xmlns="http://www.w3.org/2000/svg" viewBox="0 0 24 24"   fill="currentColor" width="1"  height="1" ><path fill-rule="evenodd" d="M20.995 4.824A3 3 0 0018 2H6l-.176.005A3 3 0 003 5v14l.005.176A3 3 0 006 22h12l.176-.005A3 3 0 0021 19V5l-.005-.176zM6 4h12l.117.007A1 1 0 0119 5v14l-.007.117A1 1 0 0118 20H6l-.117-.007A1 1 0 015 19V5l.007-.117A1 1 0 016 4z" clip-rule="evenodd" fill-opacity="0.75" fill="#EFF1F6"></path><path fill-rule="evenodd" d="M10.763 12.827l-1.06-1.06a1 1 0 00-1.415 1.414l1.415 1.414a1.5 1.5 0 002.12 0l3.889-3.888a1 1 0 00-1.415-1.414l-3.534 3.534z" clip-rule="evenodd" fill-opacity="0.75" fill="#EFF1F6"></path></svg>