<svg xmlns:xlink="http://www.w3.org/1999/xlink" xmlns="http://www.w3.org/2000/svg" viewBox="0 0 18 18"   fill="currentColor" class="text-olive dark:text-dark-olive" width="1"  height="1" ><path fill-rule="evenodd" d="M9 12.553A3.746 3.746 0 0112.531 9l.22-.001a3.75 3.75 0 013.412 5.304l.33 1.727a.395.395 0 01-.462.462l-1.727-.331A3.75 3.75 0 019 12.749v-.197z" clip-rule="evenodd" fill="#00B8A3"></path><path d="M1.5 8.251a6.75 6.75 0 013.73-6.036A6.657 6.657 0 018.249 1.5h.401a.75.75 0 01.042.001c2.95.164 5.403 2.265 6.112 5.065.101.402 0 .895-.543.911-.543.016-1.51.023-1.51.023a5.25 5.25 0 00-5.25 5.25s-.048 1.248-.024 1.5c.024.25-.513.64-.914.537a6.653 6.653 0 01-1.33-.502.05.05 0 00-.032-.004l-2.601.498a.75.75 0 01-.878-.877l.498-2.603a.05.05 0 00-.004-.032A6.655 6.655 0 011.5 8.251z" fill="#00B8A3"></path></svg>