<svg xmlns:xlink="http://www.w3.org/1999/xlink" xmlns="http://www.w3.org/2000/svg" viewBox="0 0 24 24"   fill="#EFF1F6" width="1"  height="1" ><path fill-rule="evenodd" d="M7.5 7V5c0-1.484 1.242-2.667 2.75-2.667h3.5c1.508 0 2.75 1.183 2.75 2.667v2H19a3 3 0 013 3v8a3 3 0 01-3 3H5a3 3 0 01-3-3v-8a3 3 0 013-3h2.5zm2 0h5V5c0-.357-.325-.667-.75-.667h-3.5c-.425 0-.75.31-.75.667v2zM5 9a1 1 0 00-1 1v8a1 1 0 001 1h2.5V9H5zm4.5 0v10h5V9h-5zm7 0v10H19a1 1 0 001-1v-8a1 1 0 00-1-1h-2.5z" clip-rule="evenodd" fill-opacity="0.75" fill="#EFF1F6"></path></svg>