<svg id="Layer_1" data-name="Layer 1" xmlns="http://www.w3.org/2000/svg" viewBox="0 0 98.75 55.61658"><defs><style>.cls-1{fill:#39424e;}</style></defs><title>C++</title><g id="c_" data-name="c++"><path class="cls-1" d="M48.06011,70.63542a28.88006,28.88006,0,0,1-19.01352,7.17286C13.375,77.80829.625,65.31921.625,49.96766c0-15.31586,12.75-27.77595,28.42159-27.77595A28.74016,28.74016,0,0,1,47.996,29.3038a5.198,5.198,0,1,1-6.85059,7.81962,18.35021,18.35021,0,0,0-12.0988-4.53566c-9.93941,0-18.02554,7.7962-18.02554,17.3799,0,9.61827,8.08612,17.44346,18.02554,17.44346a18.48653,18.48653,0,0,0,12.16682-4.60034,5.19861,5.19861,0,0,1,6.84669,7.82464Z" transform="translate(-0.625 -22.19171)"/><path class="cls-1" d="M71.22979,53.96176H65.573v5.657a2.80715,2.80715,0,0,1-5.6143,0v-5.657H54.30231a2.80685,2.80685,0,1,1,0-5.61369h5.65644V42.69133a2.80715,2.80715,0,0,1,5.6143,0v5.65674h5.65674a2.80685,2.80685,0,1,1,0,5.61369Z" transform="translate(-0.625 -22.19171)"/><path class="cls-1" d="M96.56785,53.96176H90.91111v5.657a2.80715,2.80715,0,0,1-5.6143,0v-5.657H79.64037a2.80685,2.80685,0,1,1,0-5.61369h5.65644V42.69133a2.80715,2.80715,0,0,1,5.6143,0v5.65674h5.65674a2.80685,2.80685,0,1,1,0,5.61369Z" transform="translate(-0.625 -22.19171)"/></g></svg>
