<svg id="Layer_1" data-name="Layer 1" xmlns="http://www.w3.org/2000/svg" viewBox="0 0 98.69043 67.15833"><defs><style>.cls-1{fill:#39424e;}</style></defs><title>30</title><g id="_30" data-name="30"><path class="cls-1" d="M43.92662,32.17408A15.35642,15.35642,0,0,1,40.222,42.57246a19.19929,19.19929,0,0,1-10.39657,5.8894V48.73q7.89933.98368,11.96,4.797,4.05972,3.81516,4.05972,10.28607,0,9.41833-6.82779,14.65918-6.826,5.24448-19.49968,5.24267A47.33678,47.33678,0,0,1,.68457,80.1896V68.45429a42.43611,42.43611,0,0,0,8.34588,3.12314,35.06268,35.06268,0,0,0,9.01435,1.2065q6.826,0,10.085-2.32243,3.25538-2.32061,3.25719-7.45278a6.73442,6.73442,0,0,0-3.74813-6.51439q-3.74994-1.91573-11.96-1.91845H10.72607V44h5.04158q7.58683,0,11.0904-1.98548,3.50266-1.98638,3.50175-6.806,0-7.40477-9.28065-7.40749a21.19163,21.19163,0,0,0-6.53794,1.07245,31.87878,31.87878,0,0,0-7.38575,3.70284L.77515,23.071Q9.69892,16.64444,22.061,16.64534q10.12755,0,15.99793,4.105A13.16912,13.16912,0,0,1,43.92662,32.17408Z" transform="translate(-0.68457 -16.55658)"/><path class="cls-1" d="M99.375,50.20277q0,17.0894-5.60136,25.30213-5.59774,8.21182-17.2461,8.21-11.2933,0-17.02146-8.47812-5.739-8.47812-5.73541-25.034,0-17.26874,5.576-25.45792,5.576-8.18737,17.18088-8.18827,11.2933,0,17.07219,8.56689Q99.37138,33.69126,99.375,50.20277Zm-31.90528,0q0,12.00524,2.07243,17.20443,2.07605,5.19557,6.98539,5.19919,4.826,0,6.96366-5.268,2.14127-5.26622,2.13765-17.13559,0-12.00252-2.15939-17.24791-2.163-5.24176-6.94192-5.24267-4.85862,0-6.96366,5.24267Q67.4661,38.19934,67.46972,50.20277Z" transform="translate(-0.68457 -16.55658)"/></g></svg>