<svg width="99" height="97" fill="none" xmlns="http://www.w3.org/2000/svg"><g opacity=".4"><rect x="2.82" y="11.94" width="92.62" height="82.03" rx="7.84" stroke="#B7C9CC" stroke-width="5.65"/><path d="M2.82 19.78a7.84 7.84 0 017.84-7.84H87.6a7.84 7.84 0 017.84 7.84v18.3H2.82v-18.3z" stroke="#B7C9CC" stroke-width="5.65"/><path d="M35.23 72.51v-3.64h4.38v-8.64h-3.7v-2.79a20.1 20.1 0 002.83-.63 11.93 11.93 0 002.08-1h3.32v13.06h3.58v3.64H35.23zm15.27 0V55.38h4.61l1.4 5.59.47 2.21h.1l.48-2.21 1.4-5.59h4.6v17.13h-3.73v-4.03c0-.51.02-1.15.05-1.92l.16-2.43a86.04 86.04 0 01.37-4.35h-.08l-1.45 5.09-.9 3.1h-2l-.95-3.1-1.31-5.09h-.1a159.53 159.53 0 01.36 4.35 125.33 125.33 0 01.21 4.35v4.03H50.5zM63.75 22.62h-.24a3.08 3.08 0 01-3.11-3.08V3.9A3.08 3.08 0 0163.5.82h.24c1.68 0 3.12 1.3 3.12 3.08v15.76c0 1.66-1.44 2.96-3.12 2.96zM34.51 22.62h-.24a3.08 3.08 0 01-3.11-3.08V3.9A3.08 3.08 0 0134.27.82h.24c1.68 0 3.12 1.3 3.12 3.08v15.76c0 1.66-1.44 2.96-3.12 2.96z" fill="#B7C9CC"/></g></svg>