<svg width="99" height="97" fill="none" xmlns="http://www.w3.org/2000/svg"><g opacity=".4"><rect x="2.82" y="11.94" width="92.62" height="82.03" rx="7.84" stroke="#B7C9CC" stroke-width="5.65"/><path d="M2.82 19.78a7.84 7.84 0 017.84-7.84H87.6a7.84 7.84 0 017.84 7.84v18.3H2.82v-18.3z" stroke="#B7C9CC" stroke-width="5.65"/><path d="M35.23 72.51v-3.64h4.38v-8.64h-3.7v-2.79a20.1 20.1 0 002.83-.63 11.93 11.93 0 002.08-1h3.32v13.06h3.58v3.64H35.23zm16.09 0l-2.14-17.13h4.64l.21 8.49v4.42h.1c.11-.73.24-1.47.4-2.2l.45-2.22.95-4.16h2.63l.87 4.16.42 2.16c.16.74.3 1.5.43 2.26h.1v-4.42l.21-8.49h4.32l-1.97 17.13h-4.7l-.76-4.69-.26-1.71c-.07-.58-.11-1.13-.13-1.64H57a31.73 31.73 0 01-.4 3.35l-.7 4.69h-4.6zM63.75 22.62h-.24a3.08 3.08 0 01-3.11-3.08V3.9A3.08 3.08 0 0163.5.82h.24c1.68 0 3.12 1.3 3.12 3.08v15.76c0 1.66-1.44 2.96-3.12 2.96zM34.51 22.62h-.24a3.08 3.08 0 01-3.11-3.08V3.9A3.08 3.08 0 0134.27.82h.24c1.68 0 3.12 1.3 3.12 3.08v15.76c0 1.66-1.44 2.96-3.12 2.96z" fill="#B7C9CC"/></g></svg>