<svg xmlns:xlink="http://www.w3.org/1999/xlink" xmlns="http://www.w3.org/2000/svg" viewBox="0 0 24 24"   fill="currentColor" width="1"  height="1" ><path d="M13.465 3.862a3 3 0 00-2.957-.048L2.61 8.122a1 1 0 000 1.756L5 11.18v6.27c0 .59.26 1.15.74 1.491 1.216.86 3.75 2.409 6.26 2.409s5.044-1.548 6.26-2.409c.48-.34.74-.901.74-1.491v-6.27l1.4-.98v4.7a.9.9 0 101.8 0V9.572a1 1 0 00-.493-.862l-8.242-4.848zM18.82 9l-5.862 3.198a2 2 0 01-1.916 0L5.18 9l5.862-3.198a2 2 0 011.916 0L18.82 9zM17 16.687a.937.937 0 01-.413.788c-.855.565-2.882 1.774-4.587 1.774-1.705 0-3.732-1.209-4.587-1.774A.936.936 0 017 16.687V12.27l3.562 1.945a3 3 0 002.876 0L17 12.27v4.417z" fill-opacity="0.75" fill="#EFF1F6"></path></svg>