<svg xmlns:xlink="http://www.w3.org/1999/xlink" xmlns="http://www.w3.org/2000/svg" viewBox="0 0 24 24"   fill="currentColor" width="1"  height="1" ><path fill-rule="evenodd" d="M20.364 10.364c0 2.814-1.496 5.556-3.956 8.153a25.656 25.656 0 01-3.506 3.072c-.161.116-.28.198-.347.243a1 1 0 01-1.11 0 12.541 12.541 0 01-.347-.243 25.651 25.651 0 01-3.506-3.071c-2.46-2.598-3.956-5.34-3.956-8.154a8.364 8.364 0 0116.728 0zm-7.836 8.997a23.687 23.687 0 002.428-2.22c2.142-2.26 3.408-4.58 3.408-6.777a6.364 6.364 0 00-12.728 0c0 2.196 1.266 4.517 3.408 6.778A23.689 23.689 0 0012 19.769c.166-.124.342-.26.528-.408zM12 12.91a3 3 0 110-6 3 3 0 010 6zm0-2a1 1 0 100-2 1 1 0 000 2z" clip-rule="evenodd" fill-opacity="0.75" fill="#EFF1F6"></path></svg>