<svg xmlns:xlink="http://www.w3.org/1999/xlink" version="1.1" class="highcharts-root" style="font-family:&quot;Lucida Grande&quot;, &quot;Lucida Sans Unicode&quot;, Arial, Helvetica, sans-serif;font-size:12px;" xmlns="http://www.w3.org/2000/svg" width="650" height="123" viewBox="0 0 650 123"><desc>Created with Highcharts 9.3.3</desc><defs><clipPath id="highcharts-rc8vkaj-48-"><rect x="0" y="0" width="630" height="77" fill="none"></rect></clipPath><clipPath id="highcharts-rc8vkaj-89-"><rect x="0" y="0" width="630" height="77" fill="none"></rect></clipPath><clipPath id="highcharts-rc8vkaj-92-"><rect x="10" y="10" width="630" height="77" fill="none"></rect></clipPath><clipPath id="highcharts-rc8vkaj-93-"><rect x="10" y="10" width="630" height="77" fill="none"></rect></clipPath></defs><rect fill="#000000" class="highcharts-background" x="0" y="0" width="650" height="123" rx="0" ry="0" fill-opacity="0"></rect><rect fill="none" class="highcharts-plot-background" x="10" y="10" width="630" height="77"></rect><g class="highcharts-pane-group" data-z-index="0"></g><g class="highcharts-grid highcharts-xaxis-grid" data-z-index="1"><path fill="none" stroke-dasharray="none" data-z-index="1" class="highcharts-grid-line" d="M 15.5 10 L 15.5 87" opacity="1"></path><path fill="none" stroke-dasharray="none" data-z-index="1" class="highcharts-grid-line" d="M 633.5 10 L 633.5 87" opacity="1"></path></g><rect fill="none" class="highcharts-plot-border" data-z-index="1" x="10" y="10" width="630" height="77"></rect><g class="highcharts-axis highcharts-xaxis" data-z-index="2"><path fill="none" class="highcharts-axis-line" stroke="#000000" stroke-width="1" data-z-index="7" d="M 10 87.5 L 640 87.5" stroke-opacity="0"></path></g><g class="highcharts-series-group" data-z-index="3"><g class="highcharts-series highcharts-series-0 highcharts-line-series" data-z-index="0.1" opacity="1" transform="translate(10,10) scale(1 1)" clip-path="url(#highcharts-rc8vkaj-89-)"><path fill="none" d="M 6.1764705882353 42.581 L 10.012787723785 44.891 L 40.703324808184 48.818 L 186.48337595908 46.662 L 217.17391304348 44.891 L 270.88235294118 46.354 L 278.55498721228 45.969 L 286.22762148338 46.046 L 336.09974424552 44.583 L 397.48081841432 41.041000000000004 L 401.31713554987 37.268 L 405.15345268542 35.035000000000004 L 408.98976982097 35.266 L 424.33503836317 31.647 L 428.17135549872 31.262 L 432.00767263427 31.416000000000004 L 435.84398976982 28.798000000000002 L 447.35294117647 26.796 L 478.04347826087 26.488 L 481.87979539642 25.872 L 485.71611253197 26.256999999999998 L 493.38874680307 23.023000000000003 L 497.22506393862 24.717 L 520.24296675192 21.175000000000004 L 524.07928388747 21.560000000000002 L 547.09718670077 21.175000000000004 L 554.76982097187 20.405 L 562.44245524297 21.637 L 566.27877237852 21.175000000000004 L 573.95140664962 19.634999999999998 L 581.62404092072 16.401000000000003 L 589.29667519182 16.323999999999998 L 593.13299232737 14.630000000000003 L 596.96930946292 13.706000000000003 L 600.80562659847 15.091999999999999 L 604.64194373402 14.938000000000002 L 608.47826086957 14.938000000000002 L 612.31457800512 9.701999999999998 L 616.15089514066 10.010000000000005 L 623.82352941176 10.780000000000001" class="highcharts-graph" data-z-index="1" stroke="#FFA116" stroke-width="2px" stroke-linejoin="round" stroke-linecap="round"></path><path fill="none" d="M 6.1764705882353 42.581 L 10.012787723785 44.891 L 40.703324808184 48.818 L 186.48337595908 46.662 L 217.17391304348 44.891 L 270.88235294118 46.354 L 278.55498721228 45.969 L 286.22762148338 46.046 L 336.09974424552 44.583 L 397.48081841432 41.041000000000004 L 401.31713554987 37.268 L 405.15345268542 35.035000000000004 L 408.98976982097 35.266 L 424.33503836317 31.647 L 428.17135549872 31.262 L 432.00767263427 31.416000000000004 L 435.84398976982 28.798000000000002 L 447.35294117647 26.796 L 478.04347826087 26.488 L 481.87979539642 25.872 L 485.71611253197 26.256999999999998 L 493.38874680307 23.023000000000003 L 497.22506393862 24.717 L 520.24296675192 21.175000000000004 L 524.07928388747 21.560000000000002 L 547.09718670077 21.175000000000004 L 554.76982097187 20.405 L 562.44245524297 21.637 L 566.27877237852 21.175000000000004 L 573.95140664962 19.634999999999998 L 581.62404092072 16.401000000000003 L 589.29667519182 16.323999999999998 L 593.13299232737 14.630000000000003 L 596.96930946292 13.706000000000003 L 600.80562659847 15.091999999999999 L 604.64194373402 14.938000000000002 L 608.47826086957 14.938000000000002 L 612.31457800512 9.701999999999998 L 616.15089514066 10.010000000000005 L 623.82352941176 10.780000000000001" visibility="visible" data-z-index="2" class="highcharts-tracker-line" stroke-linecap="round" stroke-linejoin="round" stroke="#C0C0C0" stroke-width="22px" stroke-opacity="0"></path></g><g class="highcharts-markers highcharts-series-0 highcharts-line-series highcharts-tracker" data-z-index="0.1" opacity="1" transform="translate(10,10) scale(1 1)" clip-path="none"><path fill="#FFFFFF" d="M 612 12.701999999999998 A 3 3 0 1 1 612.0029999995 12.701998500000123 Z" stroke="#E5E7EB" stroke-width="1" opacity="1" class="highcharts-point"></path></g></g><text x="325" text-anchor="middle" class="highcharts-title" data-z-index="4" style="color: rgb(51, 51, 51); font-size: 18px; display: none;" y="24" fill="#333333"></text><text x="325" text-anchor="middle" class="highcharts-subtitle" data-z-index="4" style="color: rgb(102, 102, 102);" y="24" fill="#666666"></text><text x="10" text-anchor="start" class="highcharts-caption" data-z-index="4" style="color: rgb(102, 102, 102);" y="120" fill="#666666"></text><g class="highcharts-annotation" opacity="1" data-z-index="6" visibility="visible" style="cursor:move;"><g class="highcharts-annotation-shapes" clip-path="url(#highcharts-rc8vkaj-92-)"></g><g class="highcharts-annotation-labels" transform="translate(0,0)"><g class="highcharts-label highcharts-annotation-label highcharts-no-tooltip" transform="translate(602,35)"><path fill="#212224" class="highcharts-label-box highcharts-annotation-label-box" d="M 3.5 0.5 L 13.5 0.5 L 19.5 -5.5 L 25.5 0.5 L 38 0.5 C 41.5 0.5 41.5 0.5 41.5 3.5 L 41.5 20.5 C 41.5 23.5 41.5 23.5 38.5 23.5 L 3.5 23.5 C 0.5 23.5 0.5 23.5 0.5 20.5 L 0.5 3.5 C 0.5 0.5 0.5 0.5 3.5 0.5" stroke="#F7FAFF" stroke-width="1" stroke-opacity="0.18"></path><text x="5" data-z-index="1" y="16" style="color: rgba(239, 241, 246, 0.6); font-size: 11px; font-weight: normal;" fill-opacity="0.6" fill="#EFF1F6">1,874</text></g></g></g><g class="highcharts-legend highcharts-no-tooltip" data-z-index="7"><rect fill="none" class="highcharts-legend-box" rx="0" ry="0" x="0" y="0" width="8" height="8" visibility="hidden"></rect><g data-z-index="1"><g></g></g></g><g class="highcharts-axis-labels highcharts-xaxis-labels" data-z-index="7"><text x="23.91406249999998" style="color: rgb(102, 102, 102); cursor: default; font-size: 11px;" text-anchor="middle" transform="translate(0,0)" y="106" opacity="1" fill="#666666">2020</text><text x="626.0859375" style="color: rgb(102, 102, 102); cursor: default; font-size: 11px;" text-anchor="middle" transform="translate(0,0)" y="106" opacity="1" fill="#666666">2022</text></g><g class="highcharts-control-points" data-z-index="99" clip-path="url(#highcharts-rc8vkaj-92-)"></g></svg>