<svg xmlns:xlink="http://www.w3.org/1999/xlink" version="1.1" class="highcharts-root" style="font-family:&quot;Lucida Grande&quot;, &quot;Lucida Sans Unicode&quot;, Arial, Helvetica, sans-serif;font-size:12px;" xmlns="http://www.w3.org/2000/svg" width="385" height="123" viewBox="0 0 385 123"><desc>Created with Highcharts 9.3.3</desc><defs><clipPath id="highcharts-rc8vkaj-1-"><rect x="0" y="0" width="365" height="77" fill="none"></rect></clipPath><clipPath id="highcharts-rc8vkaj-42-"><rect x="0" y="0" width="365" height="77" fill="none"></rect></clipPath><clipPath id="highcharts-rc8vkaj-45-"><rect x="10" y="10" width="365" height="77" fill="none"></rect></clipPath><clipPath id="highcharts-rc8vkaj-200-"><rect x="10" y="10" width="365" height="77" fill="none"></rect></clipPath></defs><rect fill="#000000" class="highcharts-background" x="0" y="0" width="385" height="123" rx="0" ry="0" fill-opacity="0"></rect><rect fill="none" class="highcharts-plot-background" x="10" y="10" width="365" height="77"></rect><g class="highcharts-pane-group" data-z-index="0"></g><g class="highcharts-grid highcharts-xaxis-grid" data-z-index="1"><path fill="none" stroke-dasharray="none" data-z-index="1" class="highcharts-grid-line" d="M 13.5 10 L 13.5 87" opacity="1"></path><path fill="none" stroke-dasharray="none" data-z-index="1" class="highcharts-grid-line" d="M 370.5 10 L 370.5 87" opacity="1"></path></g><rect fill="none" class="highcharts-plot-border" data-z-index="1" x="10" y="10" width="365" height="77"></rect><g class="highcharts-axis highcharts-xaxis" data-z-index="2"><path fill="none" class="highcharts-axis-line" stroke="#000000" stroke-width="1" data-z-index="7" d="M 10 87.5 L 375 87.5" stroke-opacity="0"></path></g><path fill="none" class="highcharts-crosshair highcharts-crosshair-thin" data-z-index="2" stroke="#FFA116" stroke-width="1" style="pointer-events:none;" visibility="hidden" d="M 330.5 10 L 330.5 87" stroke-opacity="0.6"></path><g class="highcharts-series-group" data-z-index="3"><g class="highcharts-series highcharts-series-0 highcharts-line-series" data-z-index="0.1" opacity="1" transform="translate(10,10) scale(1 1)" clip-path="url(#highcharts-rc8vkaj-42-)"><path fill="none" d="M 3.578431372549 42.581 L 5.8010595542565 44.891 L 23.582085007916 48.818 L 108.0419559128 46.662 L 125.82298136646 44.891 L 156.93977591036 46.354 L 161.38503227378 45.969 L 165.83028863719 46.046 L 194.72445499939 44.583 L 230.28650590671 41.041000000000004 L 232.50913408842 37.268 L 234.73176227013 35.035000000000004 L 236.95439045183 35.266 L 245.84490317866 31.647 L 248.06753136037 31.262 L 250.29015954208 31.416000000000004 L 252.51278772379 28.798000000000002 L 259.18067226891 26.796 L 276.96169772257 26.488 L 279.18432590427 25.872 L 281.40695408598 26.256999999999998 L 285.8522104494 23.023000000000003 L 288.0748386311 24.717 L 301.41060772135 21.175000000000004 L 303.63323590306 21.560000000000002 L 316.9690049933 21.175000000000004 L 321.41426135672 20.405 L 325.85951772013 21.637 L 328.08214590184 21.175000000000004 L 332.52740226525 19.634999999999998 L 336.97265862867 16.401000000000003 L 341.41791499208 16.323999999999998 L 343.64054317379 14.630000000000003 L 345.8631713555 13.706000000000003 L 348.08579953721 15.091999999999999 L 350.30842771891 14.938000000000002 L 352.53105590062 14.938000000000002 L 354.75368408233 9.701999999999998 L 356.97631226404 10.010000000000005 L 361.42156862745 10.780000000000001" class="highcharts-graph" data-z-index="1" stroke="#FFA116" stroke-width="2px" stroke-linejoin="round" stroke-linecap="round"></path><path fill="none" d="M 3.578431372549 42.581 L 5.8010595542565 44.891 L 23.582085007916 48.818 L 108.0419559128 46.662 L 125.82298136646 44.891 L 156.93977591036 46.354 L 161.38503227378 45.969 L 165.83028863719 46.046 L 194.72445499939 44.583 L 230.28650590671 41.041000000000004 L 232.50913408842 37.268 L 234.73176227013 35.035000000000004 L 236.95439045183 35.266 L 245.84490317866 31.647 L 248.06753136037 31.262 L 250.29015954208 31.416000000000004 L 252.51278772379 28.798000000000002 L 259.18067226891 26.796 L 276.96169772257 26.488 L 279.18432590427 25.872 L 281.40695408598 26.256999999999998 L 285.8522104494 23.023000000000003 L 288.0748386311 24.717 L 301.41060772135 21.175000000000004 L 303.63323590306 21.560000000000002 L 316.9690049933 21.175000000000004 L 321.41426135672 20.405 L 325.85951772013 21.637 L 328.08214590184 21.175000000000004 L 332.52740226525 19.634999999999998 L 336.97265862867 16.401000000000003 L 341.41791499208 16.323999999999998 L 343.64054317379 14.630000000000003 L 345.8631713555 13.706000000000003 L 348.08579953721 15.091999999999999 L 350.30842771891 14.938000000000002 L 352.53105590062 14.938000000000002 L 354.75368408233 9.701999999999998 L 356.97631226404 10.010000000000005 L 361.42156862745 10.780000000000001" visibility="visible" data-z-index="2" class="highcharts-tracker-line" stroke-linecap="round" stroke-linejoin="round" stroke="#C0C0C0" stroke-width="22px" stroke-opacity="0"></path></g><g class="highcharts-markers highcharts-series-0 highcharts-line-series highcharts-tracker" data-z-index="0.1" opacity="1" transform="translate(10,10) scale(1 1)" clip-path="none"><path fill="#FFA116" visibility="hidden" d="M 321 20.405 A 0 0 0 1 1 321 20.405 Z" class="highcharts-halo highcharts-color-undefined" data-z-index="-1" fill-opacity="0.25"></path><path fill="#FFFFFF" d="M 354 12.701999999999998 A 3 3 0 1 1 354.0029999995 12.701998500000123 Z" stroke="#E5E7EB" stroke-width="1" opacity="1" class="highcharts-point"></path><path fill="#FFA116" d="M 320.5 24.905 A 4.5 4.5 0 1 1 320.50449999925 24.904997750000188 Z" stroke="#FFFFFF" stroke-width="1" opacity="1" visibility="hidden" class="highcharts-point"></path></g></g><text x="193" text-anchor="middle" class="highcharts-title" data-z-index="4" style="color: rgb(51, 51, 51); font-size: 18px; display: none;" y="24" fill="#333333"></text><text x="193" text-anchor="middle" class="highcharts-subtitle" data-z-index="4" style="color: rgb(102, 102, 102);" y="24" fill="#666666"></text><text x="10" text-anchor="start" class="highcharts-caption" data-z-index="4" style="color: rgb(102, 102, 102);" y="120" fill="#666666"></text><g class="highcharts-annotation" opacity="1" data-z-index="6" visibility="visible" style="cursor:move;"><g class="highcharts-annotation-shapes" clip-path="url(#highcharts-rc8vkaj-45-)"></g><g class="highcharts-annotation-labels" transform="translate(0,0)"><g class="highcharts-label highcharts-annotation-label highcharts-no-tooltip" transform="translate(342,35)"><path fill="#212224" class="highcharts-label-box highcharts-annotation-label-box" d="M 3.5 0.5 L 16.5 0.5 L 22.5 -5.5 L 28.5 0.5 L 38 0.5 C 41.5 0.5 41.5 0.5 41.5 3.5 L 41.5 20.5 C 41.5 23.5 41.5 23.5 38.5 23.5 L 3.5 23.5 C 0.5 23.5 0.5 23.5 0.5 20.5 L 0.5 3.5 C 0.5 0.5 0.5 0.5 3.5 0.5" stroke="#F7FAFF" stroke-width="1" stroke-opacity="0.18"></path><text x="5" data-z-index="1" y="16" style="color: rgba(239, 241, 246, 0.6); font-size: 11px; font-weight: normal;" fill-opacity="0.6" fill="#EFF1F6">1,874</text></g></g></g><g class="highcharts-legend highcharts-no-tooltip" data-z-index="7"><rect fill="none" class="highcharts-legend-box" rx="0" ry="0" x="0" y="0" width="8" height="8" visibility="hidden"></rect><g data-z-index="1"><g></g></g></g><g class="highcharts-axis-labels highcharts-xaxis-labels" data-z-index="7"><text x="23.914062499999993" style="color: rgb(102, 102, 102); cursor: default; font-size: 11px;" text-anchor="middle" transform="translate(0,0)" y="106" opacity="1" fill="#666666">2020</text><text x="361.0859375" style="color: rgb(102, 102, 102); cursor: default; font-size: 11px;" text-anchor="middle" transform="translate(0,0)" y="106" opacity="1" fill="#666666">2022</text></g><g class="highcharts-control-points" data-z-index="99" clip-path="url(#highcharts-rc8vkaj-45-)"></g></svg>