<svg xmlns:xlink="http://www.w3.org/1999/xlink" version="1.1" class="highcharts-root" style="font-family:&quot;Lucida Grande&quot;, &quot;Lucida Sans Unicode&quot;, Arial, Helvetica, sans-serif;font-size:12px;" xmlns="http://www.w3.org/2000/svg" width="385" height="115" viewBox="0 0 385 115"><desc>Created with Highcharts 9.3.3</desc><defs><clipPath id="highcharts-rc8vkaj-95-"><rect x="0" y="0" width="385" height="115" fill="none"></rect></clipPath><clipPath id="highcharts-rc8vkaj-119-"><rect x="0" y="0" width="385" height="115" fill="none"></rect></clipPath><clipPath id="highcharts-rc8vkaj-143-"><rect x="0" y="0" width="385" height="115" fill="none"></rect></clipPath></defs><rect fill="#000000" class="highcharts-background" x="0" y="0" width="385" height="115" rx="0" ry="0" fill-opacity="0"></rect><rect fill="none" class="highcharts-plot-background" x="0" y="0" width="385" height="115"></rect><g class="highcharts-pane-group" data-z-index="0"></g><rect fill="none" class="highcharts-plot-border" data-z-index="1" x="0" y="0" width="385" height="115"></rect><g class="highcharts-series-group" data-z-index="3"><g class="highcharts-series highcharts-series-0 highcharts-column-series highcharts-tracker" data-z-index="0.1" opacity="1" transform="translate(0,0) scale(1 1)" clip-path="url(#highcharts-rc8vkaj-119-)"><rect x="3.5" y="105.5" width="15" height="10" fill="#FFFFFF" rx="2" ry="2" stroke="#282828" stroke-width="1" opacity="1" class="highcharts-point" fill-opacity="0.1"></rect><rect x="20.5" y="105.5" width="15" height="10" fill="#FFFFFF" rx="2" ry="2" stroke="#282828" stroke-width="1" opacity="1" class="highcharts-point" fill-opacity="0.1"></rect><rect x="36.5" y="105.5" width="15" height="10" fill="#FFFFFF" rx="2" ry="2" stroke="#282828" stroke-width="1" opacity="1" class="highcharts-point" fill-opacity="0.1"></rect><rect x="53.5" y="102.5" width="14" height="13" fill="#FFFFFF" rx="2" ry="2" stroke="#282828" stroke-width="1" opacity="1" class="highcharts-point" fill-opacity="0.1"></rect><rect x="69.5" y="82.5" width="15" height="33" fill="#FFFFFF" rx="2" ry="2" stroke="#282828" stroke-width="1" opacity="1" class="highcharts-point" fill-opacity="0.1"></rect><rect x="86.5" y="16.5" width="14" height="99" fill="#FFFFFF" rx="2" ry="2" stroke="#282828" stroke-width="1" opacity="1" class="highcharts-point" fill-opacity="0.1"></rect><rect x="102.5" y="33.5" width="15" height="82" fill="#FFFFFF" rx="2" ry="2" stroke="#282828" stroke-width="1" opacity="1" class="highcharts-point" fill-opacity="0.1"></rect><rect x="118.5" y="63.5" width="15" height="52" fill="#FFFFFF" rx="2" ry="2" stroke="#282828" stroke-width="1" opacity="1" class="highcharts-point" fill-opacity="0.1"></rect><rect x="135.5" y="81.5" width="15" height="34" fill="#FFFFFF" rx="2" ry="2" stroke="#282828" stroke-width="1" opacity="1" class="highcharts-point" fill-opacity="0.1"></rect><rect x="151.5" y="92.5" width="15" height="23" fill="#FFFFFF" rx="2" ry="2" stroke="#282828" stroke-width="1" opacity="1" class="highcharts-point" fill-opacity="0.1"></rect><rect x="168.5" y="99.5" width="14" height="16" fill="#FFFFFF" rx="2" ry="2" stroke="#282828" stroke-width="1" opacity="1" class="highcharts-point" fill-opacity="0.1"></rect><rect x="184.5" y="103.5" width="15" height="12" fill="#FFFFFF" rx="2" ry="2" stroke="#282828" stroke-width="1" opacity="1" class="highcharts-point" fill-opacity="0.1"></rect><rect x="201.5" y="105.5" width="14" height="10" fill="#FFFFFF" rx="2" ry="2" stroke="#282828" stroke-width="1" opacity="1" class="highcharts-point" fill-opacity="0.1"></rect><rect x="217.5" y="105.5" width="15" height="10" fill="#FFFFFF" rx="2" ry="2" stroke="#282828" stroke-width="1" opacity="1" class="highcharts-point" fill-opacity="0.1"></rect><rect x="233.5" y="105.5" width="15" height="10" fill="#FFA116" rx="2" ry="2" stroke="#282828" stroke-width="1" opacity="1" class="highcharts-point highcharts-point-select"></rect><rect x="250.5" y="105.5" width="15" height="10" fill="#FFFFFF" rx="2" ry="2" stroke="#282828" stroke-width="1" opacity="1" class="highcharts-point" fill-opacity="0.1"></rect><rect x="266.5" y="105.5" width="15" height="10" fill="#FFFFFF" rx="2" ry="2" stroke="#282828" stroke-width="1" opacity="1" class="highcharts-point" fill-opacity="0.1"></rect><rect x="283.5" y="105.5" width="14" height="10" fill="#FFFFFF" rx="2" ry="2" stroke="#282828" stroke-width="1" opacity="1" class="highcharts-point" fill-opacity="0.1"></rect><rect x="299.5" y="105.5" width="15" height="10" fill="#FFFFFF" rx="2" ry="2" stroke="#282828" stroke-width="1" opacity="1" class="highcharts-point" fill-opacity="0.1"></rect><rect x="316.5" y="105.5" width="14" height="10" fill="#FFFFFF" rx="2" ry="2" stroke="#282828" stroke-width="1" opacity="1" class="highcharts-point" fill-opacity="0.1"></rect><rect x="332.5" y="105.5" width="15" height="10" fill="#FFFFFF" rx="2" ry="2" stroke="#282828" stroke-width="1" opacity="1" class="highcharts-point" fill-opacity="0.1"></rect><rect x="348.5" y="105.5" width="15" height="10" fill="#FFFFFF" rx="2" ry="2" stroke="#282828" stroke-width="1" opacity="1" class="highcharts-point" fill-opacity="0.1"></rect><rect x="365.5" y="105.5" width="15" height="10" fill="#FFFFFF" rx="2" ry="2" stroke="#282828" stroke-width="1" opacity="1" class="highcharts-point" fill-opacity="0.1"></rect></g><g class="highcharts-markers highcharts-series-0 highcharts-column-series" data-z-index="0.1" opacity="1" transform="translate(0,0) scale(1 1)" clip-path="none"></g><g class="highcharts-series highcharts-series-1 highcharts-column-series highcharts-tracker" data-z-index="0.1" opacity="1" transform="translate(0,0) scale(1 1)" clip-path="url(#highcharts-rc8vkaj-119-)"><rect x="3.5" y="16.5" width="16" height="99" fill="#000000" rx="2" ry="2" stroke="#282828" stroke-width="1" opacity="1" class="highcharts-point" fill-opacity="0"></rect><rect x="19.5" y="16.5" width="16" height="99" fill="#000000" rx="2" ry="2" stroke="#282828" stroke-width="1" opacity="1" class="highcharts-point" fill-opacity="0"></rect><rect x="35.5" y="16.5" width="17" height="99" fill="#000000" rx="2" ry="2" stroke="#282828" stroke-width="1" opacity="1" class="highcharts-point" fill-opacity="0"></rect><rect x="52.5" y="16.5" width="16" height="99" fill="#000000" rx="2" ry="2" stroke="#282828" stroke-width="1" opacity="1" class="highcharts-point" fill-opacity="0"></rect><rect x="68.5" y="16.5" width="17" height="99" fill="#000000" rx="2" ry="2" stroke="#282828" stroke-width="1" opacity="1" class="highcharts-point" fill-opacity="0"></rect><rect x="85.5" y="16.5" width="16" height="99" fill="#000000" rx="2" ry="2" stroke="#282828" stroke-width="1" opacity="1" class="highcharts-point" fill-opacity="0"></rect><rect x="101.5" y="16.5" width="17" height="99" fill="#000000" rx="2" ry="2" stroke="#282828" stroke-width="1" opacity="1" class="highcharts-point" fill-opacity="0"></rect><rect x="118.5" y="16.5" width="16" height="99" fill="#000000" rx="2" ry="2" stroke="#282828" stroke-width="1" opacity="1" class="highcharts-point" fill-opacity="0"></rect><rect x="134.5" y="16.5" width="16" height="99" fill="#000000" rx="2" ry="2" stroke="#282828" stroke-width="1" opacity="1" class="highcharts-point" fill-opacity="0"></rect><rect x="150.5" y="16.5" width="17" height="99" fill="#000000" rx="2" ry="2" stroke="#282828" stroke-width="1" opacity="1" class="highcharts-point" fill-opacity="0"></rect><rect x="167.5" y="16.5" width="16" height="99" fill="#000000" rx="2" ry="2" stroke="#282828" stroke-width="1" opacity="1" class="highcharts-point" fill-opacity="0"></rect><rect x="183.5" y="16.5" width="17" height="99" fill="#000000" rx="2" ry="2" stroke="#282828" stroke-width="1" opacity="1" class="highcharts-point" fill-opacity="0"></rect><rect x="200.5" y="16.5" width="16" height="99" fill="#000000" rx="2" ry="2" stroke="#282828" stroke-width="1" opacity="1" class="highcharts-point" fill-opacity="0"></rect><rect x="216.5" y="16.5" width="17" height="99" fill="#000000" rx="2" ry="2" stroke="#282828" stroke-width="1" opacity="1" class="highcharts-point" fill-opacity="0"></rect><rect x="233.5" y="16.5" width="16" height="99" fill="#000000" rx="2" ry="2" stroke="#282828" stroke-width="1" opacity="1" class="highcharts-point" fill-opacity="0"></rect><rect x="249.5" y="16.5" width="16" height="99" fill="#000000" rx="2" ry="2" stroke="#282828" stroke-width="1" opacity="1" class="highcharts-point" fill-opacity="0"></rect><rect x="265.5" y="16.5" width="17" height="99" fill="#000000" rx="2" ry="2" stroke="#282828" stroke-width="1" opacity="1" class="highcharts-point" fill-opacity="0"></rect><rect x="282.5" y="16.5" width="16" height="99" fill="#000000" rx="2" ry="2" stroke="#282828" stroke-width="1" opacity="1" class="highcharts-point" fill-opacity="0"></rect><rect x="298.5" y="16.5" width="17" height="99" fill="#000000" rx="2" ry="2" stroke="#282828" stroke-width="1" opacity="1" class="highcharts-point" fill-opacity="0"></rect><rect x="315.5" y="16.5" width="16" height="99" fill="#000000" rx="2" ry="2" stroke="#282828" stroke-width="1" opacity="1" class="highcharts-point" fill-opacity="0"></rect><rect x="331.5" y="16.5" width="17" height="99" fill="#000000" rx="2" ry="2" stroke="#282828" stroke-width="1" opacity="1" class="highcharts-point" fill-opacity="0"></rect><rect x="348.5" y="16.5" width="16" height="99" fill="#000000" rx="2" ry="2" stroke="#282828" stroke-width="1" opacity="1" class="highcharts-point" fill-opacity="0"></rect><rect x="364.5" y="16.5" width="16" height="99" fill="#000000" rx="2" ry="2" stroke="#282828" stroke-width="1" opacity="1" class="highcharts-point" fill-opacity="0"></rect></g><g class="highcharts-markers highcharts-series-1 highcharts-column-series" data-z-index="0.1" opacity="1" transform="translate(0,0) scale(1 1)" clip-path="none"></g></g><text x="193" text-anchor="middle" class="highcharts-title" data-z-index="4" style="color: rgb(51, 51, 51); font-size: 18px; display: none;" y="24" fill="#333333"></text><text x="193" text-anchor="middle" class="highcharts-subtitle" data-z-index="4" style="color: rgb(102, 102, 102);" y="24" fill="#666666"></text><text x="10" text-anchor="start" class="highcharts-caption" data-z-index="4" style="color: rgb(102, 102, 102);" y="112" fill="#666666"></text><g class="highcharts-legend highcharts-no-tooltip" data-z-index="7"><rect fill="none" class="highcharts-legend-box" rx="0" ry="0" x="0" y="0" width="8" height="8" visibility="hidden"></rect><g data-z-index="1"><g></g></g></g><g class="highcharts-control-points" data-z-index="99" clip-path="url(#highcharts-rc8vkaj-143-)"></g></svg>