<svg xmlns:xlink="http://www.w3.org/1999/xlink" xmlns="http://www.w3.org/2000/svg" viewBox="0 0 24 24"   fill="currentColor" class="text-blue-s dark:text-dark-blue-s" width="1"  height="1" ><path fill-rule="evenodd" d="M1.104 12.444a1 1 0 010-.888c.13-.26.37-.693.722-1.241A18.85 18.85 0 013.88 7.652C6.184 5.176 8.896 3.667 12 3.667s5.816 1.509 8.119 3.985c.79.85 1.475 1.756 2.055 2.663.352.548.593.98.722 1.24a1 1 0 010 .89c-.13.26-.37.692-.722 1.24a18.848 18.848 0 01-2.055 2.663c-2.303 2.476-5.015 3.985-8.119 3.985s-5.816-1.509-8.119-3.985a18.846 18.846 0 01-2.055-2.663c-.352-.548-.593-.98-.722-1.24zM12 16a4 4 0 110-8 4 4 0 010 8zm0-2a2 2 0 100-4 2 2 0 000 4z" clip-rule="evenodd" fill="#0A84FF"></path></svg>