<svg xmlns:xlink="http://www.w3.org/1999/xlink" xmlns="http://www.w3.org/2000/svg" viewBox="0 0 24 24"   fill="currentColor" class="text-teal dark:text-dark-teal" width="1"  height="1" ><path fill-rule="evenodd" d="M2.442 3.433C2 4.152 2 5.136 2 7.1v9.8c0 1.964 0 2.946.442 3.668a3 3 0 00.99.99C4.155 22 5.136 22 7.1 22h9.8c1.964 0 2.946 0 3.668-.442.403-.247.743-.587.99-.99C22 19.845 22 18.863 22 16.9V7.1c0-1.964 0-2.946-.442-3.667a3 3 0 00-.99-.99C19.845 2 18.863 2 16.9 2H7.1c-1.964 0-2.946 0-3.667.442a3 3 0 00-.99.99zm6.534 7.823l1.805 1.805 4.243-4.243a1 1 0 011.414 1.414l-4.95 4.95a1 1 0 01-1.414 0L7.562 12.67a1 1 0 111.414-1.414z" clip-rule="evenodd" fill="#64D2FF"></path></svg>