<svg xmlns:xlink="http://www.w3.org/1999/xlink" xmlns="http://www.w3.org/2000/svg" viewBox="0 0 18 18"   fill="currentColor" width="1"  height="1" ><path fill-rule="evenodd" d="M9 1.5A7.5 7.5 0 001.5 9 7.5 7.5 0 009 16.5 7.5 7.5 0 0016.5 9 7.5 7.5 0 009 1.5zM7.354 13.579c3.454-.156 5.768-2.634 5.815-6.252.377-.314.815-.687 1.016-1.103-.323.16-.7.263-1.128.321.39-.284.708-.64.874-1.15-.402.213-.822.408-1.335.507C11.38 4.43 8.474 5.618 8.987 7.81 6.944 7.685 5.7 6.76 4.667 5.626c-.591.958-.076 2.407.621 2.804-.362-.022-.634-.134-.895-.253.034 1.206.699 1.781 1.63 2.093-.294.063-.598.07-.896.022.286.845.897 1.37 1.93 1.471-.699.597-2.004 1.018-3.057.85.898.57 1.93 1.03 3.354.966z" clip-rule="evenodd" fill-opacity="0.75" fill="#EFF1F6"></path></svg>